<svg xmlns="http://www.w3.org/2000/svg" width="640" height="160" viewBox="0 0 640 160">
  <g transform="translate(0.5,0.5)" text-anchor="middle" font-size="14" font-family="sans-serif" font-weight="normal">
    <g transform="translate(4,101)">
      <g stroke="black" stroke-width="1" stroke-linecap="round">
        <line x2="631"/>
        <line x2="631" y1="41" y2="41"/>
        <line y2="41"/>
        <line x1="631" x2="631" y2="41"/>
        <line x1="621" x2="621" y2="5"/>
        <line x1="621" x2="621" y1="41" y2="36"/>
        <line x1="611" x2="611" y2="5"/>
        <line x1="611" x2="611" y1="41" y2="36"/>
        <line x1="601" x2="601" y2="5"/>
        <line x1="601" x2="601" y1="41" y2="36"/>
        <line x1="592" x2="592" y2="41"/>
        <line x1="582" x2="582" y2="5"/>
        <line x1="582" x2="582" y1="41" y2="36"/>
        <line x1="572" x2="572" y2="5"/>
        <line x1="572" x2="572" y1="41" y2="36"/>
        <line x1="562" x2="562" y2="5"/>
        <line x1="562" x2="562" y1="41" y2="36"/>
        <line x1="552" x2="552" y2="5"/>
        <line x1="552" x2="552" y1="41" y2="36"/>
        <line x1="542" x2="542" y2="5"/>
        <line x1="542" x2="542" y1="41" y2="36"/>
        <line x1="532" x2="532" y2="5"/>
        <line x1="532" x2="532" y1="41" y2="36"/>
        <line x1="523" x2="523" y2="5"/>
        <line x1="523" x2="523" y1="41" y2="36"/>
        <line x1="513" x2="513" y2="5"/>
        <line x1="513" x2="513" y1="41" y2="36"/>
        <line x1="503" x2="503" y2="5"/>
        <line x1="503" x2="503" y1="41" y2="36"/>
        <line x1="493" x2="493" y2="5"/>
        <line x1="493" x2="493" y1="41" y2="36"/>
        <line x1="483" x2="483" y2="5"/>
        <line x1="483" x2="483" y1="41" y2="36"/>
        <line x1="473" x2="473" y2="5"/>
        <line x1="473" x2="473" y1="41" y2="36"/>
        <line x1="463" x2="463" y2="5"/>
        <line x1="463" x2="463" y1="41" y2="36"/>
        <line x1="454" x2="454" y2="5"/>
        <line x1="454" x2="454" y1="41" y2="36"/>
        <line x1="444" x2="444" y2="5"/>
        <line x1="444" x2="444" y1="41" y2="36"/>
        <line x1="434" x2="434" y2="5"/>
        <line x1="434" x2="434" y1="41" y2="36"/>
        <line x1="424" x2="424" y2="5"/>
        <line x1="424" x2="424" y1="41" y2="36"/>
        <line x1="414" x2="414" y2="5"/>
        <line x1="414" x2="414" y1="41" y2="36"/>
        <line x1="404" x2="404" y2="5"/>
        <line x1="404" x2="404" y1="41" y2="36"/>
        <line x1="394" x2="394" y2="5"/>
        <line x1="394" x2="394" y1="41" y2="36"/>
        <line x1="385" x2="385" y2="5"/>
        <line x1="385" x2="385" y1="41" y2="36"/>
        <line x1="375" x2="375" y2="5"/>
        <line x1="375" x2="375" y1="41" y2="36"/>
        <line x1="365" x2="365" y2="5"/>
        <line x1="365" x2="365" y1="41" y2="36"/>
        <line x1="355" x2="355" y2="5"/>
        <line x1="355" x2="355" y1="41" y2="36"/>
        <line x1="345" x2="345" y2="5"/>
        <line x1="345" x2="345" y1="41" y2="36"/>
        <line x1="335" x2="335" y2="5"/>
        <line x1="335" x2="335" y1="41" y2="36"/>
        <line x1="325" x2="325" y2="5"/>
        <line x1="325" x2="325" y1="41" y2="36"/>
        <line x1="316" x2="316" y2="5"/>
        <line x1="316" x2="316" y1="41" y2="36"/>
        <line x1="306" x2="306" y2="5"/>
        <line x1="306" x2="306" y1="41" y2="36"/>
        <line x1="296" x2="296" y2="5"/>
        <line x1="296" x2="296" y1="41" y2="36"/>
        <line x1="286" x2="286" y2="5"/>
        <line x1="286" x2="286" y1="41" y2="36"/>
        <line x1="276" x2="276" y2="5"/>
        <line x1="276" x2="276" y1="41" y2="36"/>
        <line x1="266" x2="266" y2="5"/>
        <line x1="266" x2="266" y1="41" y2="36"/>
        <line x1="256" x2="256" y2="5"/>
        <line x1="256" x2="256" y1="41" y2="36"/>
        <line x1="246" x2="246" y2="5"/>
        <line x1="246" x2="246" y1="41" y2="36"/>
        <line x1="237" x2="237" y2="5"/>
        <line x1="237" x2="237" y1="41" y2="36"/>
        <line x1="227" x2="227" y2="5"/>
        <line x1="227" x2="227" y1="41" y2="36"/>
        <line x1="217" x2="217" y2="5"/>
        <line x1="217" x2="217" y1="41" y2="36"/>
        <line x1="207" x2="207" y2="5"/>
        <line x1="207" x2="207" y1="41" y2="36"/>
        <line x1="197" x2="197" y2="5"/>
        <line x1="197" x2="197" y1="41" y2="36"/>
        <line x1="187" x2="187" y2="5"/>
        <line x1="187" x2="187" y1="41" y2="36"/>
        <line x1="177" x2="177" y2="5"/>
        <line x1="177" x2="177" y1="41" y2="36"/>
        <line x1="168" x2="168" y2="5"/>
        <line x1="168" x2="168" y1="41" y2="36"/>
        <line x1="158" x2="158" y2="5"/>
        <line x1="158" x2="158" y1="41" y2="36"/>
        <line x1="148" x2="148" y2="5"/>
        <line x1="148" x2="148" y1="41" y2="36"/>
        <line x1="138" x2="138" y2="5"/>
        <line x1="138" x2="138" y1="41" y2="36"/>
        <line x1="128" x2="128" y2="5"/>
        <line x1="128" x2="128" y1="41" y2="36"/>
        <line x1="118" x2="118" y2="5"/>
        <line x1="118" x2="118" y1="41" y2="36"/>
        <line x1="108" x2="108" y2="5"/>
        <line x1="108" x2="108" y1="41" y2="36"/>
        <line x1="99" x2="99" y2="5"/>
        <line x1="99" x2="99" y1="41" y2="36"/>
        <line x1="89" x2="89" y2="5"/>
        <line x1="89" x2="89" y1="41" y2="36"/>
        <line x1="79" x2="79" y2="5"/>
        <line x1="79" x2="79" y1="41" y2="36"/>
        <line x1="69" x2="69" y2="5"/>
        <line x1="69" x2="69" y1="41" y2="36"/>
        <line x1="59" x2="59" y2="5"/>
        <line x1="59" x2="59" y1="41" y2="36"/>
        <line x1="49" x2="49" y2="5"/>
        <line x1="49" x2="49" y1="41" y2="36"/>
        <line x1="39" x2="39" y2="5"/>
        <line x1="39" x2="39" y1="41" y2="36"/>
        <line x1="30" x2="30" y2="5"/>
        <line x1="30" x2="30" y1="41" y2="36"/>
        <line x1="20" x2="20" y2="5"/>
        <line x1="20" x2="20" y1="41" y2="36"/>
        <line x1="10" x2="10" y2="5"/>
        <line x1="10" x2="10" y1="41" y2="36"/>
      </g>
      <g>
        <g>
          <rect width="592" height="41" style="fill-opacity:0.1"/>
        </g>
        <g transform="translate(5,-11)">
          <g transform="translate(621)">
            <text y="6">0</text>
          </g>
          <g transform="translate(592)">
            <text y="6">3</text>
          </g>
          <g transform="translate(582)">
            <text y="6">4</text>
          </g>
          <g transform="translate(0)">
            <text y="6">63</text>
          </g>
        </g>
        <g transform="translate(5,20)">
          <g>
            <g transform="translate(621)">
              <text y="6">0</text>
            </g>
            <g transform="translate(611)">
              <text y="6">1</text>
            </g>
            <g transform="translate(601)">
              <text y="6">0</text>
            </g>
            <g transform="translate(592)">
              <text y="6">1</text>
            </g>
          </g>
        </g>
        <g transform="translate(5,49)">
          <g transform="translate(606)">
            <text y="6">
              <tspan>opcode</tspan>
            </text>
          </g>
          <g transform="translate(291)">
            <text y="6">
              <tspan>unused</tspan>
            </text>
          </g>
        </g>
      </g>
    </g>
    <g transform="translate(4,21)">
      <g stroke="black" stroke-width="1" stroke-linecap="round">
        <line x2="631"/>
        <line x2="631" y1="41" y2="41"/>
        <line y2="41"/>
        <line x1="631" x2="631" y2="41"/>
        <line x1="621" x2="621" y2="5"/>
        <line x1="621" x2="621" y1="41" y2="36"/>
        <line x1="611" x2="611" y2="5"/>
        <line x1="611" x2="611" y1="41" y2="36"/>
        <line x1="601" x2="601" y2="5"/>
        <line x1="601" x2="601" y1="41" y2="36"/>
        <line x1="592" x2="592" y2="5"/>
        <line x1="592" x2="592" y1="41" y2="36"/>
        <line x1="582" x2="582" y2="5"/>
        <line x1="582" x2="582" y1="41" y2="36"/>
        <line x1="572" x2="572" y2="5"/>
        <line x1="572" x2="572" y1="41" y2="36"/>
        <line x1="562" x2="562" y2="5"/>
        <line x1="562" x2="562" y1="41" y2="36"/>
        <line x1="552" x2="552" y2="5"/>
        <line x1="552" x2="552" y1="41" y2="36"/>
        <line x1="542" x2="542" y2="5"/>
        <line x1="542" x2="542" y1="41" y2="36"/>
        <line x1="532" x2="532" y2="5"/>
        <line x1="532" x2="532" y1="41" y2="36"/>
        <line x1="523" x2="523" y2="5"/>
        <line x1="523" x2="523" y1="41" y2="36"/>
        <line x1="513" x2="513" y2="5"/>
        <line x1="513" x2="513" y1="41" y2="36"/>
        <line x1="503" x2="503" y2="5"/>
        <line x1="503" x2="503" y1="41" y2="36"/>
        <line x1="493" x2="493" y2="5"/>
        <line x1="493" x2="493" y1="41" y2="36"/>
        <line x1="483" x2="483" y2="5"/>
        <line x1="483" x2="483" y1="41" y2="36"/>
        <line x1="473" x2="473" y2="5"/>
        <line x1="473" x2="473" y1="41" y2="36"/>
        <line x1="463" x2="463" y2="5"/>
        <line x1="463" x2="463" y1="41" y2="36"/>
        <line x1="454" x2="454" y2="5"/>
        <line x1="454" x2="454" y1="41" y2="36"/>
        <line x1="444" x2="444" y2="5"/>
        <line x1="444" x2="444" y1="41" y2="36"/>
        <line x1="434" x2="434" y2="5"/>
        <line x1="434" x2="434" y1="41" y2="36"/>
        <line x1="424" x2="424" y2="5"/>
        <line x1="424" x2="424" y1="41" y2="36"/>
        <line x1="414" x2="414" y2="5"/>
        <line x1="414" x2="414" y1="41" y2="36"/>
        <line x1="404" x2="404" y2="5"/>
        <line x1="404" x2="404" y1="41" y2="36"/>
        <line x1="394" x2="394" y2="5"/>
        <line x1="394" x2="394" y1="41" y2="36"/>
        <line x1="385" x2="385" y2="5"/>
        <line x1="385" x2="385" y1="41" y2="36"/>
        <line x1="375" x2="375" y2="5"/>
        <line x1="375" x2="375" y1="41" y2="36"/>
        <line x1="365" x2="365" y2="5"/>
        <line x1="365" x2="365" y1="41" y2="36"/>
        <line x1="355" x2="355" y2="5"/>
        <line x1="355" x2="355" y1="41" y2="36"/>
        <line x1="345" x2="345" y2="5"/>
        <line x1="345" x2="345" y1="41" y2="36"/>
        <line x1="335" x2="335" y2="5"/>
        <line x1="335" x2="335" y1="41" y2="36"/>
        <line x1="325" x2="325" y2="5"/>
        <line x1="325" x2="325" y1="41" y2="36"/>
        <line x1="316" x2="316" y2="41"/>
        <line x1="306" x2="306" y2="5"/>
        <line x1="306" x2="306" y1="41" y2="36"/>
        <line x1="296" x2="296" y2="5"/>
        <line x1="296" x2="296" y1="41" y2="36"/>
        <line x1="286" x2="286" y2="5"/>
        <line x1="286" x2="286" y1="41" y2="36"/>
        <line x1="276" x2="276" y2="5"/>
        <line x1="276" x2="276" y1="41" y2="36"/>
        <line x1="266" x2="266" y2="5"/>
        <line x1="266" x2="266" y1="41" y2="36"/>
        <line x1="256" x2="256" y2="5"/>
        <line x1="256" x2="256" y1="41" y2="36"/>
        <line x1="246" x2="246" y2="5"/>
        <line x1="246" x2="246" y1="41" y2="36"/>
        <line x1="237" x2="237" y2="5"/>
        <line x1="237" x2="237" y1="41" y2="36"/>
        <line x1="227" x2="227" y2="5"/>
        <line x1="227" x2="227" y1="41" y2="36"/>
        <line x1="217" x2="217" y2="5"/>
        <line x1="217" x2="217" y1="41" y2="36"/>
        <line x1="207" x2="207" y2="5"/>
        <line x1="207" x2="207" y1="41" y2="36"/>
        <line x1="197" x2="197" y2="5"/>
        <line x1="197" x2="197" y1="41" y2="36"/>
        <line x1="187" x2="187" y2="5"/>
        <line x1="187" x2="187" y1="41" y2="36"/>
        <line x1="177" x2="177" y2="5"/>
        <line x1="177" x2="177" y1="41" y2="36"/>
        <line x1="168" x2="168" y2="5"/>
        <line x1="168" x2="168" y1="41" y2="36"/>
        <line x1="158" x2="158" y2="5"/>
        <line x1="158" x2="158" y1="41" y2="36"/>
        <line x1="148" x2="148" y2="5"/>
        <line x1="148" x2="148" y1="41" y2="36"/>
        <line x1="138" x2="138" y2="5"/>
        <line x1="138" x2="138" y1="41" y2="36"/>
        <line x1="128" x2="128" y2="5"/>
        <line x1="128" x2="128" y1="41" y2="36"/>
        <line x1="118" x2="118" y2="5"/>
        <line x1="118" x2="118" y1="41" y2="36"/>
        <line x1="108" x2="108" y2="5"/>
        <line x1="108" x2="108" y1="41" y2="36"/>
        <line x1="99" x2="99" y2="5"/>
        <line x1="99" x2="99" y1="41" y2="36"/>
        <line x1="89" x2="89" y2="5"/>
        <line x1="89" x2="89" y1="41" y2="36"/>
        <line x1="79" x2="79" y2="5"/>
        <line x1="79" x2="79" y1="41" y2="36"/>
        <line x1="69" x2="69" y2="5"/>
        <line x1="69" x2="69" y1="41" y2="36"/>
        <line x1="59" x2="59" y2="5"/>
        <line x1="59" x2="59" y1="41" y2="36"/>
        <line x1="49" x2="49" y2="5"/>
        <line x1="49" x2="49" y1="41" y2="36"/>
        <line x1="39" x2="39" y2="5"/>
        <line x1="39" x2="39" y1="41" y2="36"/>
        <line x1="30" x2="30" y2="5"/>
        <line x1="30" x2="30" y1="41" y2="36"/>
        <line x1="20" x2="20" y2="5"/>
        <line x1="20" x2="20" y1="41" y2="36"/>
        <line x1="10" x2="10" y2="5"/>
        <line x1="10" x2="10" y1="41" y2="36"/>
      </g>
      <g>
        <g>
          <rect x="316" width="316" height="41" style="fill-opacity:0.1"/>
          <rect width="316" height="41" style="fill-opacity:0.1"/>
        </g>
        <g transform="translate(5,-11)">
          <g transform="translate(621)">
            <text y="6">64</text>
          </g>
          <g transform="translate(316)">
            <text y="6">95</text>
          </g>
          <g transform="translate(306)">
            <text y="6">96</text>
          </g>
          <g transform="translate(0)">
            <text y="6">127</text>
          </g>
        </g>
        <g transform="translate(5,20)"/>
        <g transform="translate(5,49)">
          <g transform="translate(468)">
            <text y="6">
              <tspan>kind</tspan>
            </text>
          </g>
          <g transform="translate(153)">
            <text y="6">
              <tspan>operand</tspan>
            </text>
          </g>
        </g>
      </g>
    </g>
  </g>
</svg>

