<svg xmlns="http://www.w3.org/2000/svg" width="640" height="640" viewBox="0 0 640 640">
  <g transform="translate(0.5,0.5)" text-anchor="middle" font-size="14" font-family="sans-serif" font-weight="normal">
    <g transform="translate(4,581)">
      <g stroke="black" stroke-width="1" stroke-linecap="round">
        <line x2="631"/>
        <line x2="631" y1="41" y2="41"/>
        <line y2="41"/>
        <line x1="631" x2="631" y2="41"/>
        <line x1="611" x2="611" y2="5"/>
        <line x1="611" x2="611" y1="41" y2="36"/>
        <line x1="592" x2="592" y2="5"/>
        <line x1="592" x2="592" y1="41" y2="36"/>
        <line x1="572" x2="572" y2="5"/>
        <line x1="572" x2="572" y1="41" y2="36"/>
        <line x1="552" x2="552" y2="5"/>
        <line x1="552" x2="552" y1="41" y2="36"/>
        <line x1="532" x2="532" y2="5"/>
        <line x1="532" x2="532" y1="41" y2="36"/>
        <line x1="513" x2="513" y2="5"/>
        <line x1="513" x2="513" y1="41" y2="36"/>
        <line x1="493" x2="493" y2="5"/>
        <line x1="493" x2="493" y1="41" y2="36"/>
        <line x1="473" x2="473" y2="5"/>
        <line x1="473" x2="473" y1="41" y2="36"/>
        <line x1="454" x2="454" y2="5"/>
        <line x1="454" x2="454" y1="41" y2="36"/>
        <line x1="434" x2="434" y2="5"/>
        <line x1="434" x2="434" y1="41" y2="36"/>
        <line x1="414" x2="414" y2="5"/>
        <line x1="414" x2="414" y1="41" y2="36"/>
        <line x1="394" x2="394" y2="5"/>
        <line x1="394" x2="394" y1="41" y2="36"/>
        <line x1="375" x2="375" y2="5"/>
        <line x1="375" x2="375" y1="41" y2="36"/>
        <line x1="355" x2="355" y2="5"/>
        <line x1="355" x2="355" y1="41" y2="36"/>
        <line x1="335" x2="335" y2="5"/>
        <line x1="335" x2="335" y1="41" y2="36"/>
        <line x1="316" x2="316" y2="41"/>
        <line x1="296" x2="296" y2="5"/>
        <line x1="296" x2="296" y1="41" y2="36"/>
        <line x1="276" x2="276" y2="41"/>
        <line x1="256" x2="256" y2="5"/>
        <line x1="256" x2="256" y1="41" y2="36"/>
        <line x1="237" x2="237" y2="5"/>
        <line x1="237" x2="237" y1="41" y2="36"/>
        <line x1="217" x2="217" y2="5"/>
        <line x1="217" x2="217" y1="41" y2="36"/>
        <line x1="197" x2="197" y2="5"/>
        <line x1="197" x2="197" y1="41" y2="36"/>
        <line x1="177" x2="177" y2="5"/>
        <line x1="177" x2="177" y1="41" y2="36"/>
        <line x1="158" x2="158" y2="5"/>
        <line x1="158" x2="158" y1="41" y2="36"/>
        <line x1="138" x2="138" y2="5"/>
        <line x1="138" x2="138" y1="41" y2="36"/>
        <line x1="118" x2="118" y2="5"/>
        <line x1="118" x2="118" y1="41" y2="36"/>
        <line x1="99" x2="99" y2="5"/>
        <line x1="99" x2="99" y1="41" y2="36"/>
        <line x1="79" x2="79" y2="5"/>
        <line x1="79" x2="79" y1="41" y2="36"/>
        <line x1="59" x2="59" y2="5"/>
        <line x1="59" x2="59" y1="41" y2="36"/>
        <line x1="39" x2="39" y2="5"/>
        <line x1="39" x2="39" y1="41" y2="36"/>
        <line x1="20" x2="20" y2="5"/>
        <line x1="20" x2="20" y1="41" y2="36"/>
      </g>
      <g>
        <g>
          <rect width="276" height="41" style="fill-opacity:0.1"/>
        </g>
        <g transform="translate(10,-11)">
          <g transform="translate(611)">
            <text y="6">0</text>
          </g>
          <g transform="translate(316)">
            <text y="6">15</text>
          </g>
          <g transform="translate(296)">
            <text y="6">16</text>
          </g>
          <g transform="translate(276)">
            <text y="6">17</text>
          </g>
          <g transform="translate(256)">
            <text y="6">18</text>
          </g>
          <g transform="translate(0)">
            <text y="6">31</text>
          </g>
        </g>
        <g transform="translate(10,20)">
          <g>
            <g transform="translate(611)">
              <text y="6">0</text>
            </g>
            <g transform="translate(592)">
              <text y="6">0</text>
            </g>
            <g transform="translate(572)">
              <text y="6">0</text>
            </g>
            <g transform="translate(552)">
              <text y="6">0</text>
            </g>
            <g transform="translate(532)">
              <text y="6">1</text>
            </g>
            <g transform="translate(513)">
              <text y="6">1</text>
            </g>
            <g transform="translate(493)">
              <text y="6">1</text>
            </g>
            <g transform="translate(473)">
              <text y="6">1</text>
            </g>
            <g transform="translate(454)">
              <text y="6">0</text>
            </g>
            <g transform="translate(434)">
              <text y="6">0</text>
            </g>
            <g transform="translate(414)">
              <text y="6">0</text>
            </g>
            <g transform="translate(394)">
              <text y="6">0</text>
            </g>
            <g transform="translate(375)">
              <text y="6">1</text>
            </g>
            <g transform="translate(355)">
              <text y="6">1</text>
            </g>
            <g transform="translate(335)">
              <text y="6">1</text>
            </g>
            <g transform="translate(316)">
              <text y="6">1</text>
            </g>
          </g>
          <g transform="translate(286)">
            <text y="6">
              <tspan></tspan>
            </text>
          </g>
        </g>
        <g transform="translate(10,49)">
          <g transform="translate(286)">
            <text y="6">
              <tspan>fast-forward variant</tspan>
            </text>
          </g>
          <g transform="translate(128)">
            <text y="6">
              <tspan>unused</tspan>
            </text>
          </g>
        </g>
      </g>
    </g>
    <g transform="translate(4,501)">
      <g stroke="black" stroke-width="1" stroke-linecap="round">
        <line x2="631"/>
        <line x2="631" y1="41" y2="41"/>
        <line y2="41"/>
        <line x1="631" x2="631" y2="41"/>
        <line x1="611" x2="611" y2="5"/>
        <line x1="611" x2="611" y1="41" y2="36"/>
        <line x1="592" x2="592" y2="5"/>
        <line x1="592" x2="592" y1="41" y2="36"/>
        <line x1="572" x2="572" y2="5"/>
        <line x1="572" x2="572" y1="41" y2="36"/>
        <line x1="552" x2="552" y2="5"/>
        <line x1="552" x2="552" y1="41" y2="36"/>
        <line x1="532" x2="532" y2="5"/>
        <line x1="532" x2="532" y1="41" y2="36"/>
        <line x1="513" x2="513" y2="5"/>
        <line x1="513" x2="513" y1="41" y2="36"/>
        <line x1="493" x2="493" y2="5"/>
        <line x1="493" x2="493" y1="41" y2="36"/>
        <line x1="473" x2="473" y2="5"/>
        <line x1="473" x2="473" y1="41" y2="36"/>
        <line x1="454" x2="454" y2="5"/>
        <line x1="454" x2="454" y1="41" y2="36"/>
        <line x1="434" x2="434" y2="5"/>
        <line x1="434" x2="434" y1="41" y2="36"/>
        <line x1="414" x2="414" y2="5"/>
        <line x1="414" x2="414" y1="41" y2="36"/>
        <line x1="394" x2="394" y2="5"/>
        <line x1="394" x2="394" y1="41" y2="36"/>
        <line x1="375" x2="375" y2="5"/>
        <line x1="375" x2="375" y1="41" y2="36"/>
        <line x1="355" x2="355" y2="5"/>
        <line x1="355" x2="355" y1="41" y2="36"/>
        <line x1="335" x2="335" y2="5"/>
        <line x1="335" x2="335" y1="41" y2="36"/>
        <line x1="316" x2="316" y2="5"/>
        <line x1="316" x2="316" y1="41" y2="36"/>
        <line x1="296" x2="296" y2="5"/>
        <line x1="296" x2="296" y1="41" y2="36"/>
        <line x1="276" x2="276" y2="5"/>
        <line x1="276" x2="276" y1="41" y2="36"/>
        <line x1="256" x2="256" y2="5"/>
        <line x1="256" x2="256" y1="41" y2="36"/>
        <line x1="237" x2="237" y2="5"/>
        <line x1="237" x2="237" y1="41" y2="36"/>
        <line x1="217" x2="217" y2="5"/>
        <line x1="217" x2="217" y1="41" y2="36"/>
        <line x1="197" x2="197" y2="5"/>
        <line x1="197" x2="197" y1="41" y2="36"/>
        <line x1="177" x2="177" y2="5"/>
        <line x1="177" x2="177" y1="41" y2="36"/>
        <line x1="158" x2="158" y2="5"/>
        <line x1="158" x2="158" y1="41" y2="36"/>
        <line x1="138" x2="138" y2="5"/>
        <line x1="138" x2="138" y1="41" y2="36"/>
        <line x1="118" x2="118" y2="5"/>
        <line x1="118" x2="118" y1="41" y2="36"/>
        <line x1="99" x2="99" y2="5"/>
        <line x1="99" x2="99" y1="41" y2="36"/>
        <line x1="79" x2="79" y2="5"/>
        <line x1="79" x2="79" y1="41" y2="36"/>
        <line x1="59" x2="59" y2="5"/>
        <line x1="59" x2="59" y1="41" y2="36"/>
        <line x1="39" x2="39" y2="5"/>
        <line x1="39" x2="39" y1="41" y2="36"/>
        <line x1="20" x2="20" y2="5"/>
        <line x1="20" x2="20" y1="41" y2="36"/>
      </g>
      <g>
        <g/>
        <g transform="translate(10,-11)">
          <g transform="translate(611)">
            <text y="6">32</text>
          </g>
          <g transform="translate(0)">
            <text y="6">63</text>
          </g>
        </g>
        <g transform="translate(10,20)">
          <g transform="translate(306)">
            <text y="6">
              <tspan>set count</tspan>
            </text>
          </g>
        </g>
        <g transform="translate(10,49)"/>
      </g>
    </g>
    <g transform="translate(4,421)">
      <g stroke="black" stroke-width="1" stroke-linecap="round">
        <line x2="631"/>
        <line x2="631" y1="41" y2="41"/>
        <line y2="41"/>
        <line x1="631" x2="631" y2="41"/>
        <line x1="611" x2="611" y2="5"/>
        <line x1="611" x2="611" y1="41" y2="36"/>
        <line x1="592" x2="592" y2="5"/>
        <line x1="592" x2="592" y1="41" y2="36"/>
        <line x1="572" x2="572" y2="5"/>
        <line x1="572" x2="572" y1="41" y2="36"/>
        <line x1="552" x2="552" y2="5"/>
        <line x1="552" x2="552" y1="41" y2="36"/>
        <line x1="532" x2="532" y2="5"/>
        <line x1="532" x2="532" y1="41" y2="36"/>
        <line x1="513" x2="513" y2="5"/>
        <line x1="513" x2="513" y1="41" y2="36"/>
        <line x1="493" x2="493" y2="5"/>
        <line x1="493" x2="493" y1="41" y2="36"/>
        <line x1="473" x2="473" y2="5"/>
        <line x1="473" x2="473" y1="41" y2="36"/>
        <line x1="454" x2="454" y2="5"/>
        <line x1="454" x2="454" y1="41" y2="36"/>
        <line x1="434" x2="434" y2="5"/>
        <line x1="434" x2="434" y1="41" y2="36"/>
        <line x1="414" x2="414" y2="5"/>
        <line x1="414" x2="414" y1="41" y2="36"/>
        <line x1="394" x2="394" y2="5"/>
        <line x1="394" x2="394" y1="41" y2="36"/>
        <line x1="375" x2="375" y2="5"/>
        <line x1="375" x2="375" y1="41" y2="36"/>
        <line x1="355" x2="355" y2="5"/>
        <line x1="355" x2="355" y1="41" y2="36"/>
        <line x1="335" x2="335" y2="5"/>
        <line x1="335" x2="335" y1="41" y2="36"/>
        <line x1="316" x2="316" y2="5"/>
        <line x1="316" x2="316" y1="41" y2="36"/>
        <line x1="296" x2="296" y2="5"/>
        <line x1="296" x2="296" y1="41" y2="36"/>
        <line x1="276" x2="276" y2="5"/>
        <line x1="276" x2="276" y1="41" y2="36"/>
        <line x1="256" x2="256" y2="5"/>
        <line x1="256" x2="256" y1="41" y2="36"/>
        <line x1="237" x2="237" y2="5"/>
        <line x1="237" x2="237" y1="41" y2="36"/>
        <line x1="217" x2="217" y2="5"/>
        <line x1="217" x2="217" y1="41" y2="36"/>
        <line x1="197" x2="197" y2="5"/>
        <line x1="197" x2="197" y1="41" y2="36"/>
        <line x1="177" x2="177" y2="5"/>
        <line x1="177" x2="177" y1="41" y2="36"/>
        <line x1="158" x2="158" y2="5"/>
        <line x1="158" x2="158" y1="41" y2="36"/>
        <line x1="138" x2="138" y2="5"/>
        <line x1="138" x2="138" y1="41" y2="36"/>
        <line x1="118" x2="118" y2="5"/>
        <line x1="118" x2="118" y1="41" y2="36"/>
        <line x1="99" x2="99" y2="5"/>
        <line x1="99" x2="99" y1="41" y2="36"/>
        <line x1="79" x2="79" y2="5"/>
        <line x1="79" x2="79" y1="41" y2="36"/>
        <line x1="59" x2="59" y2="5"/>
        <line x1="59" x2="59" y1="41" y2="36"/>
        <line x1="39" x2="39" y2="5"/>
        <line x1="39" x2="39" y1="41" y2="36"/>
        <line x1="20" x2="20" y2="5"/>
        <line x1="20" x2="20" y1="41" y2="36"/>
      </g>
      <g>
        <g/>
        <g transform="translate(10,-11)">
          <g transform="translate(611)">
            <text y="6">64</text>
          </g>
          <g transform="translate(0)">
            <text y="6">95</text>
          </g>
        </g>
        <g transform="translate(10,20)">
          <g transform="translate(306)">
            <text y="6">
              <tspan>inst count</tspan>
            </text>
          </g>
        </g>
        <g transform="translate(10,49)"/>
      </g>
    </g>
    <g transform="translate(4,341)">
      <g stroke="black" stroke-width="1" stroke-linecap="round">
        <line x2="631"/>
        <line x2="631" y1="41" y2="41"/>
        <line y2="41"/>
        <line x1="631" x2="631" y2="41"/>
        <line x1="611" x2="611" y2="5"/>
        <line x1="611" x2="611" y1="41" y2="36"/>
        <line x1="592" x2="592" y2="5"/>
        <line x1="592" x2="592" y1="41" y2="36"/>
        <line x1="572" x2="572" y2="5"/>
        <line x1="572" x2="572" y1="41" y2="36"/>
        <line x1="552" x2="552" y2="5"/>
        <line x1="552" x2="552" y1="41" y2="36"/>
        <line x1="532" x2="532" y2="5"/>
        <line x1="532" x2="532" y1="41" y2="36"/>
        <line x1="513" x2="513" y2="5"/>
        <line x1="513" x2="513" y1="41" y2="36"/>
        <line x1="493" x2="493" y2="5"/>
        <line x1="493" x2="493" y1="41" y2="36"/>
        <line x1="473" x2="473" y2="5"/>
        <line x1="473" x2="473" y1="41" y2="36"/>
        <line x1="454" x2="454" y2="5"/>
        <line x1="454" x2="454" y1="41" y2="36"/>
        <line x1="434" x2="434" y2="5"/>
        <line x1="434" x2="434" y1="41" y2="36"/>
        <line x1="414" x2="414" y2="5"/>
        <line x1="414" x2="414" y1="41" y2="36"/>
        <line x1="394" x2="394" y2="5"/>
        <line x1="394" x2="394" y1="41" y2="36"/>
        <line x1="375" x2="375" y2="5"/>
        <line x1="375" x2="375" y1="41" y2="36"/>
        <line x1="355" x2="355" y2="5"/>
        <line x1="355" x2="355" y1="41" y2="36"/>
        <line x1="335" x2="335" y2="5"/>
        <line x1="335" x2="335" y1="41" y2="36"/>
        <line x1="316" x2="316" y2="5"/>
        <line x1="316" x2="316" y1="41" y2="36"/>
        <line x1="296" x2="296" y2="5"/>
        <line x1="296" x2="296" y1="41" y2="36"/>
        <line x1="276" x2="276" y2="5"/>
        <line x1="276" x2="276" y1="41" y2="36"/>
        <line x1="256" x2="256" y2="5"/>
        <line x1="256" x2="256" y1="41" y2="36"/>
        <line x1="237" x2="237" y2="5"/>
        <line x1="237" x2="237" y1="41" y2="36"/>
        <line x1="217" x2="217" y2="5"/>
        <line x1="217" x2="217" y1="41" y2="36"/>
        <line x1="197" x2="197" y2="5"/>
        <line x1="197" x2="197" y1="41" y2="36"/>
        <line x1="177" x2="177" y2="5"/>
        <line x1="177" x2="177" y1="41" y2="36"/>
        <line x1="158" x2="158" y2="5"/>
        <line x1="158" x2="158" y1="41" y2="36"/>
        <line x1="138" x2="138" y2="5"/>
        <line x1="138" x2="138" y1="41" y2="36"/>
        <line x1="118" x2="118" y2="5"/>
        <line x1="118" x2="118" y1="41" y2="36"/>
        <line x1="99" x2="99" y2="5"/>
        <line x1="99" x2="99" y1="41" y2="36"/>
        <line x1="79" x2="79" y2="5"/>
        <line x1="79" x2="79" y1="41" y2="36"/>
        <line x1="59" x2="59" y2="5"/>
        <line x1="59" x2="59" y1="41" y2="36"/>
        <line x1="39" x2="39" y2="5"/>
        <line x1="39" x2="39" y1="41" y2="36"/>
        <line x1="20" x2="20" y2="5"/>
        <line x1="20" x2="20" y1="41" y2="36"/>
      </g>
      <g>
        <g/>
        <g transform="translate(10,-11)">
          <g transform="translate(611)">
            <text y="6">96</text>
          </g>
          <g transform="translate(0)">
            <text y="6">127</text>
          </g>
        </g>
        <g transform="translate(10,20)">
          <g transform="translate(306)">
            <text y="6">
              <tspan>inst offset</tspan>
            </text>
          </g>
        </g>
        <g transform="translate(10,49)"/>
      </g>
    </g>
    <g transform="translate(4,261)">
      <g stroke="black" stroke-width="1" stroke-linecap="round">
        <line x2="631"/>
        <line x2="631" y1="41" y2="41"/>
        <line y2="41"/>
        <line x1="631" x2="631" y2="41"/>
        <line x1="611" x2="611" y2="5"/>
        <line x1="611" x2="611" y1="41" y2="36"/>
        <line x1="592" x2="592" y2="5"/>
        <line x1="592" x2="592" y1="41" y2="36"/>
        <line x1="572" x2="572" y2="5"/>
        <line x1="572" x2="572" y1="41" y2="36"/>
        <line x1="552" x2="552" y2="5"/>
        <line x1="552" x2="552" y1="41" y2="36"/>
        <line x1="532" x2="532" y2="5"/>
        <line x1="532" x2="532" y1="41" y2="36"/>
        <line x1="513" x2="513" y2="5"/>
        <line x1="513" x2="513" y1="41" y2="36"/>
        <line x1="493" x2="493" y2="5"/>
        <line x1="493" x2="493" y1="41" y2="36"/>
        <line x1="473" x2="473" y2="5"/>
        <line x1="473" x2="473" y1="41" y2="36"/>
        <line x1="454" x2="454" y2="5"/>
        <line x1="454" x2="454" y1="41" y2="36"/>
        <line x1="434" x2="434" y2="5"/>
        <line x1="434" x2="434" y1="41" y2="36"/>
        <line x1="414" x2="414" y2="5"/>
        <line x1="414" x2="414" y1="41" y2="36"/>
        <line x1="394" x2="394" y2="5"/>
        <line x1="394" x2="394" y1="41" y2="36"/>
        <line x1="375" x2="375" y2="5"/>
        <line x1="375" x2="375" y1="41" y2="36"/>
        <line x1="355" x2="355" y2="5"/>
        <line x1="355" x2="355" y1="41" y2="36"/>
        <line x1="335" x2="335" y2="5"/>
        <line x1="335" x2="335" y1="41" y2="36"/>
        <line x1="316" x2="316" y2="5"/>
        <line x1="316" x2="316" y1="41" y2="36"/>
        <line x1="296" x2="296" y2="5"/>
        <line x1="296" x2="296" y1="41" y2="36"/>
        <line x1="276" x2="276" y2="5"/>
        <line x1="276" x2="276" y1="41" y2="36"/>
        <line x1="256" x2="256" y2="5"/>
        <line x1="256" x2="256" y1="41" y2="36"/>
        <line x1="237" x2="237" y2="5"/>
        <line x1="237" x2="237" y1="41" y2="36"/>
        <line x1="217" x2="217" y2="5"/>
        <line x1="217" x2="217" y1="41" y2="36"/>
        <line x1="197" x2="197" y2="5"/>
        <line x1="197" x2="197" y1="41" y2="36"/>
        <line x1="177" x2="177" y2="5"/>
        <line x1="177" x2="177" y1="41" y2="36"/>
        <line x1="158" x2="158" y2="5"/>
        <line x1="158" x2="158" y1="41" y2="36"/>
        <line x1="138" x2="138" y2="5"/>
        <line x1="138" x2="138" y1="41" y2="36"/>
        <line x1="118" x2="118" y2="5"/>
        <line x1="118" x2="118" y1="41" y2="36"/>
        <line x1="99" x2="99" y2="5"/>
        <line x1="99" x2="99" y1="41" y2="36"/>
        <line x1="79" x2="79" y2="5"/>
        <line x1="79" x2="79" y1="41" y2="36"/>
        <line x1="59" x2="59" y2="5"/>
        <line x1="59" x2="59" y1="41" y2="36"/>
        <line x1="39" x2="39" y2="5"/>
        <line x1="39" x2="39" y1="41" y2="36"/>
        <line x1="20" x2="20" y2="5"/>
        <line x1="20" x2="20" y1="41" y2="36"/>
      </g>
      <g>
        <g/>
        <g transform="translate(10,-11)">
          <g transform="translate(611)">
            <text y="6">128</text>
          </g>
          <g transform="translate(0)">
            <text y="6">159</text>
          </g>
        </g>
        <g transform="translate(10,20)">
          <g transform="translate(306)">
            <text y="6">
              <tspan>fast-forward set id or value</tspan>
            </text>
          </g>
        </g>
        <g transform="translate(10,49)"/>
      </g>
    </g>
    <g transform="translate(4,181)">
      <g stroke="black" stroke-width="1" stroke-linecap="round">
        <line x2="631"/>
        <line x2="631" y1="41" y2="41"/>
        <line y2="41"/>
        <line x1="631" x2="631" y2="41"/>
        <line x1="611" x2="611" y2="5"/>
        <line x1="611" x2="611" y1="41" y2="36"/>
        <line x1="592" x2="592" y2="5"/>
        <line x1="592" x2="592" y1="41" y2="36"/>
        <line x1="572" x2="572" y2="5"/>
        <line x1="572" x2="572" y1="41" y2="36"/>
        <line x1="552" x2="552" y2="5"/>
        <line x1="552" x2="552" y1="41" y2="36"/>
        <line x1="532" x2="532" y2="5"/>
        <line x1="532" x2="532" y1="41" y2="36"/>
        <line x1="513" x2="513" y2="5"/>
        <line x1="513" x2="513" y1="41" y2="36"/>
        <line x1="493" x2="493" y2="5"/>
        <line x1="493" x2="493" y1="41" y2="36"/>
        <line x1="473" x2="473" y2="5"/>
        <line x1="473" x2="473" y1="41" y2="36"/>
        <line x1="454" x2="454" y2="5"/>
        <line x1="454" x2="454" y1="41" y2="36"/>
        <line x1="434" x2="434" y2="5"/>
        <line x1="434" x2="434" y1="41" y2="36"/>
        <line x1="414" x2="414" y2="5"/>
        <line x1="414" x2="414" y1="41" y2="36"/>
        <line x1="394" x2="394" y2="5"/>
        <line x1="394" x2="394" y1="41" y2="36"/>
        <line x1="375" x2="375" y2="5"/>
        <line x1="375" x2="375" y1="41" y2="36"/>
        <line x1="355" x2="355" y2="5"/>
        <line x1="355" x2="355" y1="41" y2="36"/>
        <line x1="335" x2="335" y2="5"/>
        <line x1="335" x2="335" y1="41" y2="36"/>
        <line x1="316" x2="316" y2="5"/>
        <line x1="316" x2="316" y1="41" y2="36"/>
        <line x1="296" x2="296" y2="5"/>
        <line x1="296" x2="296" y1="41" y2="36"/>
        <line x1="276" x2="276" y2="5"/>
        <line x1="276" x2="276" y1="41" y2="36"/>
        <line x1="256" x2="256" y2="5"/>
        <line x1="256" x2="256" y1="41" y2="36"/>
        <line x1="237" x2="237" y2="5"/>
        <line x1="237" x2="237" y1="41" y2="36"/>
        <line x1="217" x2="217" y2="5"/>
        <line x1="217" x2="217" y1="41" y2="36"/>
        <line x1="197" x2="197" y2="5"/>
        <line x1="197" x2="197" y1="41" y2="36"/>
        <line x1="177" x2="177" y2="5"/>
        <line x1="177" x2="177" y1="41" y2="36"/>
        <line x1="158" x2="158" y2="5"/>
        <line x1="158" x2="158" y1="41" y2="36"/>
        <line x1="138" x2="138" y2="5"/>
        <line x1="138" x2="138" y1="41" y2="36"/>
        <line x1="118" x2="118" y2="5"/>
        <line x1="118" x2="118" y1="41" y2="36"/>
        <line x1="99" x2="99" y2="5"/>
        <line x1="99" x2="99" y1="41" y2="36"/>
        <line x1="79" x2="79" y2="5"/>
        <line x1="79" x2="79" y1="41" y2="36"/>
        <line x1="59" x2="59" y2="5"/>
        <line x1="59" x2="59" y1="41" y2="36"/>
        <line x1="39" x2="39" y2="5"/>
        <line x1="39" x2="39" y1="41" y2="36"/>
        <line x1="20" x2="20" y2="5"/>
        <line x1="20" x2="20" y1="41" y2="36"/>
      </g>
      <g>
        <g>
          <rect width="631" height="41" style="fill-opacity:0.1"/>
        </g>
        <g transform="translate(10,-11)">
          <g transform="translate(611)">
            <text y="6">160</text>
          </g>
          <g transform="translate(0)">
            <text y="6">191</text>
          </g>
        </g>
        <g transform="translate(10,20)"/>
        <g transform="translate(10,49)">
          <g transform="translate(306)">
            <text y="6">
              <tspan>unused</tspan>
            </text>
          </g>
        </g>
      </g>
    </g>
    <g transform="translate(4,101)">
      <g stroke="black" stroke-width="1" stroke-linecap="round">
        <line x2="631"/>
        <line x2="631" y1="41" y2="41"/>
        <line y2="41"/>
        <line x1="631" x2="631" y2="41"/>
        <line x1="611" x2="611" y2="5"/>
        <line x1="611" x2="611" y1="41" y2="36"/>
        <line x1="592" x2="592" y2="5"/>
        <line x1="592" x2="592" y1="41" y2="36"/>
        <line x1="572" x2="572" y2="5"/>
        <line x1="572" x2="572" y1="41" y2="36"/>
        <line x1="552" x2="552" y2="5"/>
        <line x1="552" x2="552" y1="41" y2="36"/>
        <line x1="532" x2="532" y2="5"/>
        <line x1="532" x2="532" y1="41" y2="36"/>
        <line x1="513" x2="513" y2="5"/>
        <line x1="513" x2="513" y1="41" y2="36"/>
        <line x1="493" x2="493" y2="5"/>
        <line x1="493" x2="493" y1="41" y2="36"/>
        <line x1="473" x2="473" y2="5"/>
        <line x1="473" x2="473" y1="41" y2="36"/>
        <line x1="454" x2="454" y2="5"/>
        <line x1="454" x2="454" y1="41" y2="36"/>
        <line x1="434" x2="434" y2="5"/>
        <line x1="434" x2="434" y1="41" y2="36"/>
        <line x1="414" x2="414" y2="5"/>
        <line x1="414" x2="414" y1="41" y2="36"/>
        <line x1="394" x2="394" y2="5"/>
        <line x1="394" x2="394" y1="41" y2="36"/>
        <line x1="375" x2="375" y2="5"/>
        <line x1="375" x2="375" y1="41" y2="36"/>
        <line x1="355" x2="355" y2="5"/>
        <line x1="355" x2="355" y1="41" y2="36"/>
        <line x1="335" x2="335" y2="5"/>
        <line x1="335" x2="335" y1="41" y2="36"/>
        <line x1="316" x2="316" y2="5"/>
        <line x1="316" x2="316" y1="41" y2="36"/>
        <line x1="296" x2="296" y2="5"/>
        <line x1="296" x2="296" y1="41" y2="36"/>
        <line x1="276" x2="276" y2="5"/>
        <line x1="276" x2="276" y1="41" y2="36"/>
        <line x1="256" x2="256" y2="5"/>
        <line x1="256" x2="256" y1="41" y2="36"/>
        <line x1="237" x2="237" y2="5"/>
        <line x1="237" x2="237" y1="41" y2="36"/>
        <line x1="217" x2="217" y2="5"/>
        <line x1="217" x2="217" y1="41" y2="36"/>
        <line x1="197" x2="197" y2="5"/>
        <line x1="197" x2="197" y1="41" y2="36"/>
        <line x1="177" x2="177" y2="5"/>
        <line x1="177" x2="177" y1="41" y2="36"/>
        <line x1="158" x2="158" y2="5"/>
        <line x1="158" x2="158" y1="41" y2="36"/>
        <line x1="138" x2="138" y2="5"/>
        <line x1="138" x2="138" y1="41" y2="36"/>
        <line x1="118" x2="118" y2="5"/>
        <line x1="118" x2="118" y1="41" y2="36"/>
        <line x1="99" x2="99" y2="5"/>
        <line x1="99" x2="99" y1="41" y2="36"/>
        <line x1="79" x2="79" y2="5"/>
        <line x1="79" x2="79" y1="41" y2="36"/>
        <line x1="59" x2="59" y2="5"/>
        <line x1="59" x2="59" y1="41" y2="36"/>
        <line x1="39" x2="39" y2="5"/>
        <line x1="39" x2="39" y1="41" y2="36"/>
        <line x1="20" x2="20" y2="5"/>
        <line x1="20" x2="20" y1="41" y2="36"/>
      </g>
      <g>
        <g>
          <rect width="631" height="41" style="fill-opacity:0.1"/>
        </g>
        <g transform="translate(10,-11)">
          <g transform="translate(611)">
            <text y="6">192</text>
          </g>
          <g transform="translate(0)">
            <text y="6">223</text>
          </g>
        </g>
        <g transform="translate(10,20)"/>
        <g transform="translate(10,49)">
          <g transform="translate(306)">
            <text y="6">
              <tspan>unused</tspan>
            </text>
          </g>
        </g>
      </g>
    </g>
    <g transform="translate(4,21)">
      <g stroke="black" stroke-width="1" stroke-linecap="round">
        <line x2="631"/>
        <line x2="631" y1="41" y2="41"/>
        <line y2="41"/>
        <line x1="631" x2="631" y2="41"/>
        <line x1="611" x2="611" y2="5"/>
        <line x1="611" x2="611" y1="41" y2="36"/>
        <line x1="592" x2="592" y2="5"/>
        <line x1="592" x2="592" y1="41" y2="36"/>
        <line x1="572" x2="572" y2="5"/>
        <line x1="572" x2="572" y1="41" y2="36"/>
        <line x1="552" x2="552" y2="5"/>
        <line x1="552" x2="552" y1="41" y2="36"/>
        <line x1="532" x2="532" y2="5"/>
        <line x1="532" x2="532" y1="41" y2="36"/>
        <line x1="513" x2="513" y2="5"/>
        <line x1="513" x2="513" y1="41" y2="36"/>
        <line x1="493" x2="493" y2="5"/>
        <line x1="493" x2="493" y1="41" y2="36"/>
        <line x1="473" x2="473" y2="5"/>
        <line x1="473" x2="473" y1="41" y2="36"/>
        <line x1="454" x2="454" y2="5"/>
        <line x1="454" x2="454" y1="41" y2="36"/>
        <line x1="434" x2="434" y2="5"/>
        <line x1="434" x2="434" y1="41" y2="36"/>
        <line x1="414" x2="414" y2="5"/>
        <line x1="414" x2="414" y1="41" y2="36"/>
        <line x1="394" x2="394" y2="5"/>
        <line x1="394" x2="394" y1="41" y2="36"/>
        <line x1="375" x2="375" y2="5"/>
        <line x1="375" x2="375" y1="41" y2="36"/>
        <line x1="355" x2="355" y2="5"/>
        <line x1="355" x2="355" y1="41" y2="36"/>
        <line x1="335" x2="335" y2="5"/>
        <line x1="335" x2="335" y1="41" y2="36"/>
        <line x1="316" x2="316" y2="5"/>
        <line x1="316" x2="316" y1="41" y2="36"/>
        <line x1="296" x2="296" y2="5"/>
        <line x1="296" x2="296" y1="41" y2="36"/>
        <line x1="276" x2="276" y2="5"/>
        <line x1="276" x2="276" y1="41" y2="36"/>
        <line x1="256" x2="256" y2="5"/>
        <line x1="256" x2="256" y1="41" y2="36"/>
        <line x1="237" x2="237" y2="5"/>
        <line x1="237" x2="237" y1="41" y2="36"/>
        <line x1="217" x2="217" y2="5"/>
        <line x1="217" x2="217" y1="41" y2="36"/>
        <line x1="197" x2="197" y2="5"/>
        <line x1="197" x2="197" y1="41" y2="36"/>
        <line x1="177" x2="177" y2="5"/>
        <line x1="177" x2="177" y1="41" y2="36"/>
        <line x1="158" x2="158" y2="5"/>
        <line x1="158" x2="158" y1="41" y2="36"/>
        <line x1="138" x2="138" y2="5"/>
        <line x1="138" x2="138" y1="41" y2="36"/>
        <line x1="118" x2="118" y2="5"/>
        <line x1="118" x2="118" y1="41" y2="36"/>
        <line x1="99" x2="99" y2="5"/>
        <line x1="99" x2="99" y1="41" y2="36"/>
        <line x1="79" x2="79" y2="5"/>
        <line x1="79" x2="79" y1="41" y2="36"/>
        <line x1="59" x2="59" y2="5"/>
        <line x1="59" x2="59" y1="41" y2="36"/>
        <line x1="39" x2="39" y2="5"/>
        <line x1="39" x2="39" y1="41" y2="36"/>
        <line x1="20" x2="20" y2="5"/>
        <line x1="20" x2="20" y1="41" y2="36"/>
      </g>
      <g>
        <g>
          <rect width="631" height="41" style="fill-opacity:0.1"/>
        </g>
        <g transform="translate(10,-11)">
          <g transform="translate(611)">
            <text y="6">224</text>
          </g>
          <g transform="translate(0)">
            <text y="6">255</text>
          </g>
        </g>
        <g transform="translate(10,20)"/>
        <g transform="translate(10,49)">
          <g transform="translate(306)">
            <text y="6">
              <tspan>unused</tspan>
            </text>
          </g>
        </g>
      </g>
    </g>
  </g>
</svg>

